<?xml version="1.0" standalone="no"?>
<!DOCTYPE svg PUBLIC "-//W3C//DTD SVG 20010904//EN"
 "http://www.w3.org/TR/2001/REC-SVG-20010904/DTD/svg10.dtd">
<svg version="1.0" xmlns="http://www.w3.org/2000/svg"
 width="360.000000pt" height="360.000000pt" viewBox="0 0 360.000000 360.000000"
 preserveAspectRatio="xMidYMid meet">

<g transform="translate(0.000000,360.000000) scale(0.100000,-0.100000)"
fill="#000000" stroke="none">
<path d="M595 3041 c-46 -21 -79 -54 -94 -94 -15 -40 -15 -2254 0 -2294 15
-40 48 -73 94 -94 38 -18 93 -19 1195 -19 764 0 1168 4 1192 10 48 14 97 55
114 97 12 27 14 229 14 1152 0 769 -3 1129 -11 1148 -15 40 -48 73 -94 94 -38
18 -93 19 -1205 19 -1112 0 -1167 -1 -1205 -19z m2402 -93 l23 -21 0 -1126 0
-1125 -22 -23 -21 -23 -1176 0 -1175 0 -23 22 -23 21 0 1126 0 1125 22 23 21
23 1176 0 1175 0 23 -22z"/>
<path d="M932 2829 c-45 -13 -108 -79 -121 -126 -14 -50 -14 -605 -1 -655 14
-50 55 -97 105 -119 38 -18 87 -19 885 -19 798 0 847 1 885 19 51 23 91 70
105 122 7 26 10 149 8 347 -3 303 -3 307 -27 345 -13 21 -42 50 -64 65 l-41
27 -850 2 c-519 1 -864 -2 -884 -8z m1749 -108 l29 -29 0 -314 c0 -348 0 -346
-66 -374 -50 -21 -1638 -21 -1688 0 -66 28 -66 26 -66 374 l0 314 29 29 29 29
852 0 852 0 29 -29z"/>
<path d="M1273 2608 c-18 -23 -164 -458 -158 -468 3 -6 24 -10 45 -10 38 0 39
1 56 55 l18 55 92 0 91 0 19 -52 c19 -53 19 -53 67 -56 33 -2 47 1 47 10 0 7
-34 113 -76 236 -66 192 -80 225 -101 233 -35 13 -89 11 -100 -3z m87 -188
c17 -51 30 -95 30 -97 0 -2 -30 -3 -66 -3 -49 0 -65 3 -61 13 2 6 17 51 33 99
15 48 29 86 31 84 2 -1 17 -45 33 -96z"/>
<path d="M1512 2573 l3 -38 62 -3 63 -3 2 -197 3 -197 45 0 45 0 3 197 2 197
63 3 62 3 3 38 3 37 -181 0 -181 0 3 -37z"/>
<path d="M1934 2597 c-2 -7 -3 -114 -2 -237 l3 -225 40 0 40 0 5 200 5 200 58
-170 c78 -233 79 -235 119 -235 18 0 38 4 44 8 9 6 64 151 140 372 6 16 11
-44 14 -175 l5 -200 40 0 40 0 0 235 0 235 -65 3 c-54 3 -68 0 -80 -16 -9 -11
-40 -85 -70 -166 -48 -129 -70 -171 -70 -134 0 17 -101 291 -112 306 -14 17
-147 17 -154 -1z"/>
<path d="M839 1633 c0 -2 0 -33 -1 -70 l0 -68 71 -3 71 -3 0 70 0 69 -70 4
c-39 2 -70 2 -71 1z"/>
<path d="M1070 1563 l0 -73 70 0 70 0 0 73 0 72 -70 0 -70 0 0 -72z"/>
<path d="M1301 1560 l2 -70 73 0 74 0 0 70 0 70 -75 0 -76 0 2 -70z"/>
<path d="M2033 1600 c-25 -10 -31 -48 -11 -68 9 -9 108 -12 384 -12 325 0 375
2 388 16 21 20 20 30 -4 54 -19 19 -33 20 -377 19 -197 0 -368 -4 -380 -9z"/>
<path d="M839 1398 c0 -2 -1 -33 -2 -71 l-2 -67 73 0 72 0 0 70 0 70 -70 0
c-38 0 -70 -1 -71 -2z"/>
<path d="M1070 1330 l0 -70 70 0 70 0 0 70 0 70 -70 0 -70 0 0 -70z"/>
<path d="M1310 1398 c-1 -2 -2 -33 -3 -71 l-2 -67 73 0 72 0 0 70 0 70 -70 0
c-38 0 -70 -1 -70 -2z"/>
<path d="M837 1163 c-1 -1 -1 -33 1 -72 l4 -71 69 0 69 0 0 69 0 69 -71 4
c-39 2 -71 2 -72 1z"/>
<path d="M1138 1163 l-68 -4 0 -69 0 -70 70 0 70 0 0 75 c0 41 -1 74 -2 73 -2
-1 -33 -3 -70 -5z"/>
<path d="M1310 1165 c-1 0 -2 -33 -3 -73 l-2 -72 73 0 72 0 0 69 0 69 -70 4
c-39 2 -70 3 -70 3z"/>
<path d="M2033 1130 c-25 -10 -31 -48 -11 -68 9 -9 108 -12 384 -12 325 0 375
2 388 16 20 19 20 25 2 50 -14 18 -31 19 -378 21 -204 1 -373 -2 -385 -7z"/>
</g>
</svg>
