<?xml version="1.0" standalone="no"?>
<!DOCTYPE svg PUBLIC "-//W3C//DTD SVG 20010904//EN"
 "http://www.w3.org/TR/2001/REC-SVG-20010904/DTD/svg10.dtd">
<svg version="1.0" xmlns="http://www.w3.org/2000/svg"
 width="512.000000pt" height="512.000000pt" viewBox="0 0 512.000000 512.000000"
 preserveAspectRatio="xMidYMid meet">

<g transform="translate(0.000000,512.000000) scale(0.100000,-0.100000)"
fill="#000000" stroke="none">
<path d="M2245 4764 c-883 -123 -1615 -775 -1840 -1639 -54 -205 -69 -332 -69
-560 0 -223 15 -348 65 -550 215 -854 932 -1504 1814 -1645 292 -47 658 -24
944 59 865 250 1492 989 1596 1879 38 325 5 645 -100 958 -185 556 -579 1012
-1104 1278 -202 102 -383 163 -611 207 -153 29 -529 36 -695 13z m185 -659 l0
-495 -416 0 -415 0 6 23 c21 68 94 241 140 332 162 320 391 552 610 621 83 26
75 75 75 -481z m271 476 c125 -43 217 -100 327 -205 139 -132 252 -288 353
-488 44 -88 119 -259 119 -272 0 -3 -200 -6 -445 -6 l-445 0 0 495 c0 563 -10
511 91 476z m-868 -162 c-101 -116 -178 -233 -253 -380 -58 -114 -135 -298
-161 -386 l-12 -43 -294 0 c-175 0 -293 4 -293 9 0 6 21 40 46 78 203 297 480
545 779 697 72 37 250 115 263 116 1 0 -32 -41 -75 -91z m1592 -32 c267 -137
521 -345 708 -579 74 -93 137 -182 137 -192 0 -4 -129 -5 -286 -4 l-285 3 -50
135 c-92 252 -223 486 -368 657 l-61 73 53 -21 c28 -11 97 -44 152 -72z
m-2075 -970 c0 -6 -11 -66 -24 -132 -30 -150 -54 -333 -63 -481 l-6 -114 -374
0 c-292 0 -373 3 -373 13 0 6 7 59 15 116 25 175 91 403 162 557 l24 54 320 0
c249 0 319 -3 319 -13z m1080 -357 l0 -370 -500 0 -500 0 0 28 c1 110 47 436
86 602 l26 110 444 0 444 0 0 -370z m1162 250 c16 -63 35 -154 43 -202 16 -90
45 -341 45 -390 l0 -28 -535 0 -535 0 0 370 0 370 477 -2 477 -3 28 -115z
m822 48 c76 -168 126 -332 157 -506 10 -63 19 -125 19 -138 l0 -24 -370 0
-370 0 -4 23 c-3 12 -7 72 -11 132 -6 126 -37 349 -66 480 -10 49 -19 93 -19
97 0 4 142 8 316 8 l315 0 33 -72z m-3160 -920 c3 -35 8 -113 11 -174 6 -120
28 -304 51 -424 8 -41 14 -76 14 -77 0 -7 -646 -2 -656 5 -16 10 -82 190 -110
299 -25 98 -51 267 -57 371 l-3 62 372 0 372 0 6 -62z m1176 -308 l0 -370
-453 0 -454 0 -21 98 c-43 194 -72 423 -72 569 l0 73 500 0 500 0 0 -370z
m1250 333 c0 -130 -44 -478 -78 -623 l-17 -75 -488 -3 -487 -2 0 370 0 370
535 0 535 0 0 -37z m915 -50 c-15 -197 -62 -413 -123 -573 l-29 -75 -337 -3
c-318 -2 -337 -1 -332 15 23 78 62 395 72 591 l7 132 374 0 375 0 -7 -87z
m-3171 -988 c29 -82 69 -188 89 -235 76 -173 199 -367 306 -482 46 -50 51 -60
31 -54 -45 14 -271 125 -349 172 -189 115 -410 308 -548 479 -67 83 -183 252
-183 267 0 5 136 7 301 6 l301 -3 52 -150z m1006 -366 l0 -521 -27 7 c-60 15
-172 75 -250 134 -144 109 -278 273 -399 491 -51 92 -145 307 -169 388 l-6 22
425 0 426 0 0 -521z m1100 512 c0 -50 -150 -397 -226 -524 -97 -161 -243 -327
-359 -407 -90 -62 -242 -120 -315 -120 -20 0 -20 11 -20 530 l0 530 460 0
c281 0 460 -4 460 -9z m804 -23 c-92 -179 -328 -452 -524 -605 -145 -113 -394
-252 -543 -303 l-58 -19 53 60 c212 241 330 467 463 887 3 9 75 12 315 12
l311 0 -17 -32z"/>
</g>
</svg>
