<?xml version="1.0" standalone="no"?>
<!DOCTYPE svg PUBLIC "-//W3C//DTD SVG 20010904//EN"
 "http://www.w3.org/TR/2001/REC-SVG-20010904/DTD/svg10.dtd">
<svg version="1.0" xmlns="http://www.w3.org/2000/svg"
 width="195.000000pt" height="195.000000pt" viewBox="0 0 195.000000 195.000000"
 preserveAspectRatio="xMidYMid meet">

<g transform="translate(0.000000,195.000000) scale(0.100000,-0.100000)"
fill="#000000" stroke="none">
<path d="M720 1090 l0 -90 30 0 30 0 0 75 c0 59 3 75 14 75 22 0 30 -19 12
-26 -24 -9 -19 -31 9 -38 16 -4 25 -13 25 -26 0 -13 -9 -22 -25 -26 -38 -9
-32 -34 8 -34 59 0 86 51 48 89 -12 12 -17 27 -14 40 9 36 -14 51 -78 51 l-59
0 0 -90z"/>
<path d="M900 1091 c0 -84 1 -91 20 -91 18 0 20 7 20 68 l0 67 20 -25 c21 -27
26 -50 10 -50 -5 0 -10 -4 -10 -10 0 -5 9 -10 20 -10 10 0 24 -9 30 -20 8 -16
21 -20 60 -20 l50 0 0 53 0 52 26 -45 c29 -51 40 -60 72 -60 21 0 22 3 22 90
0 83 -2 90 -19 90 -17 0 -20 -8 -23 -52 l-3 -53 -28 53 c-25 47 -30 52 -62 52
l-34 0 -3 -70 -3 -71 -41 68 c-38 65 -42 68 -82 71 l-42 3 0 -90z"/>
<path d="M1276 1164 c-33 -33 -33 -109 1 -146 21 -24 143 -27 143 -4 0 11 -15
16 -52 18 l-53 3 0 55 c0 48 2 55 20 55 13 0 21 -8 23 -22 5 -33 52 -33 52 0
0 13 -8 31 -18 40 -24 22 -95 22 -116 1z"/>
<path d="M1446 1158 c-9 -12 -16 -43 -16 -68 0 -67 20 -90 80 -90 60 0 80 23
80 90 0 67 -20 90 -80 90 -39 0 -52 -4 -64 -22z m83 -22 c7 -8 11 -32 9 -53
-3 -33 -6 -38 -28 -38 -22 0 -25 5 -28 38 -3 36 10 67 28 67 4 0 13 -6 19 -14z"/>
<path d="M280 926 l0 -136 36 0 c30 0 43 8 83 52 l48 53 42 -29 c45 -31 120
-50 164 -40 25 5 27 9 27 60 0 49 -2 54 -25 60 -14 4 -44 4 -66 0 -36 -6 -42
-3 -70 28 -49 56 -90 76 -169 83 l-70 6 0 -137z"/>
<path d="M720 896 c0 -54 4 -79 15 -90 18 -18 69 -29 111 -24 l29 3 3 93 3 92
-26 0 c-25 0 -25 -1 -25 -76 0 -72 -1 -75 -22 -72 -21 3 -23 9 -26 76 l-3 72
-29 0 -30 0 0 -74z"/>
<path d="M902 878 c3 -87 4 -93 25 -96 20 -3 22 1 25 55 l3 58 29 -48 c27 -45
57 -67 92 -67 11 0 14 19 14 95 0 95 0 95 -25 95 -23 0 -25 -3 -25 -52 l0 -53
-33 50 c-28 44 -37 50 -70 53 l-38 3 3 -93z"/>
<path d="M1120 874 l0 -95 28 3 27 3 3 93 3 92 -31 0 -30 0 0 -96z"/>
<path d="M1231 953 c-27 -22 -38 -83 -21 -122 22 -55 131 -67 165 -18 23 34
20 112 -7 137 -28 26 -106 28 -137 3z m97 -69 c3 -44 -16 -71 -43 -60 -11 4
-15 20 -15 56 0 50 1 51 28 48 24 -3 27 -8 30 -44z"/>
<path d="M1402 878 c3 -87 4 -93 25 -96 20 -3 22 1 25 55 l3 58 29 -48 c27
-45 57 -67 92 -67 11 0 14 19 14 95 0 95 0 95 -25 95 -23 0 -25 -3 -25 -52 l0
-53 -33 50 c-28 44 -37 50 -70 53 l-38 3 3 -93z"/>
<path d="M1630 840 c-12 -7 -12 -12 -2 -22 15 -15 16 -32 0 -22 -7 4 -8 3 -4
-4 7 -12 36 -5 36 9 0 5 -7 12 -15 15 -12 5 -13 10 -4 20 13 16 10 17 -11 4z"/>
<path d="M1696 825 c-10 -26 -7 -30 18 -31 21 -2 23 1 17 19 -10 27 -27 32
-35 12z"/>
</g>
</svg>
