<?xml version="1.0" standalone="no"?>
<!DOCTYPE svg PUBLIC "-//W3C//DTD SVG 20010904//EN"
 "http://www.w3.org/TR/2001/REC-SVG-20010904/DTD/svg10.dtd">
<svg version="1.0" xmlns="http://www.w3.org/2000/svg"
 width="2560.000000pt" height="762.000000pt" viewBox="0 0 2560.000000 762.000000"
 preserveAspectRatio="xMidYMid meet">

<g transform="translate(0.000000,762.000000) scale(0.100000,-0.100000)"
fill="#000000" stroke="none">
<path d="M18805 7614 c-22 -2 -110 -8 -195 -14 -831 -58 -1707 -244 -2440
-517 -1496 -558 -2549 -1470 -2896 -2509 -117 -349 -155 -729 -109 -1079 155
-1179 1199 -2242 2840 -2890 1884 -744 4304 -803 6295 -154 1693 553 2876
1545 3205 2689 250 867 -13 1787 -728 2549 -1019 1085 -2798 1794 -4817 1921
-145 9 -1049 12 -1155 4z m1170 -184 c773 -52 1437 -169 2101 -370 1772 -534
3010 -1570 3284 -2744 57 -246 73 -591 37 -821 -89 -572 -355 -1065 -836
-1546 -322 -321 -660 -570 -1114 -819 -1403 -768 -3319 -1094 -5205 -884
-1398 155 -2669 609 -3577 1278 -383 282 -702 609 -930 951 -100 151 -239 425
-290 574 -247 720 -140 1446 312 2118 213 317 557 668 913 930 942 696 2257
1158 3705 1302 175 18 409 34 655 45 134 6 791 -3 945 -14z"/>
<path d="M22130 5989 c-296 -39 -450 -73 -621 -137 -307 -115 -563 -302 -775
-563 -95 -116 -170 -227 -340 -499 -230 -369 -323 -490 -469 -607 -160 -129
-330 -189 -562 -200 l-133 -6 0 -458 0 -459 108 0 c491 0 813 79 1096 267 207
138 343 305 556 683 51 91 125 212 164 268 39 57 94 142 122 188 224 364 571
614 857 617 l67 1 0 458 c0 252 -1 457 -2 457 -2 -1 -32 -5 -68 -10z"/>
<path d="M18470 5949 c-197 -33 -368 -205 -402 -406 -40 -242 121 -481 364
-538 222 -52 443 48 542 246 147 294 -27 648 -344 698 -74 12 -84 12 -160 0z"/>
<path d="M14890 4528 c0 -963 4 -1442 11 -1503 78 -644 544 -1142 1194 -1280
151 -32 421 -17 627 35 297 76 517 199 724 405 225 225 361 482 420 800 28
148 26 383 -4 535 -131 653 -536 1108 -1095 1229 -181 39 -462 44 -658 11 -55
-10 -68 -15 -73 -33 -9 -33 -7 -979 2 -975 4 2 30 15 57 29 97 50 152 64 270
64 132 0 218 -23 313 -84 167 -108 261 -281 262 -480 0 -264 -194 -501 -455
-556 -289 -60 -558 92 -653 370 l-27 80 -3 1383 -3 1382 -454 0 -455 0 0
-1412z"/>
<path d="M18082 3278 l3 -1473 460 0 460 0 3 1473 2 1472 -465 0 -465 0 2
-1472z"/>
<path d="M22339 4720 c-294 -28 -562 -120 -789 -271 -126 -84 -305 -263 -389
-388 -182 -274 -274 -568 -275 -881 0 -230 62 -470 185 -712 81 -159 164 -273
289 -398 204 -205 428 -323 725 -382 90 -18 145 -22 300 -23 110 0 231 6 288
14 l97 14 0 517 0 517 -97 -48 c-118 -59 -192 -79 -293 -79 -152 0 -255 45
-370 160 -123 123 -178 260 -167 420 18 276 186 492 432 555 77 20 221 19 299
-1 174 -45 310 -170 374 -345 l27 -74 -3 -763 -4 -762 464 2 463 3 3 690 c3
723 -3 895 -38 1064 -93 455 -374 823 -785 1025 -248 122 -491 170 -736 146z"/>
<path d="M3 4593 c3 -1300 0 -1245 67 -1445 140 -419 503 -738 928 -813 220
-40 532 14 767 133 229 115 432 318 547 547 93 184 132 350 132 560 0 219 -42
391 -146 600 -170 342 -454 562 -810 630 -157 30 -386 29 -540 -2 l-31 -6 6
-405 c4 -223 8 -407 10 -409 2 -1 32 13 68 32 84 45 192 70 273 61 209 -21
416 -257 416 -474 0 -176 -90 -328 -237 -404 -94 -49 -156 -62 -272 -56 -202
11 -349 114 -420 297 l-26 66 -3 1133 -3 1132 -365 0 -365 0 4 -1177z"/>
<path d="M8978 4874 c-543 -84 -976 -574 -1048 -1183 -30 -256 69 -589 250
-843 72 -100 206 -234 299 -297 312 -212 703 -259 1166 -139 44 11 84 24 88
28 7 6 -254 779 -268 798 -2 2 -29 -11 -62 -27 -201 -103 -401 -72 -558 84
-98 98 -144 211 -145 355 0 144 44 253 141 345 107 103 260 149 413 126 86
-12 160 -36 197 -61 l25 -19 127 362 c70 199 127 367 127 374 0 28 -216 83
-401 103 -125 13 -245 11 -351 -6z"/>
<path d="M10876 4880 c-298 -38 -557 -162 -762 -365 -248 -246 -374 -550 -374
-900 0 -345 122 -649 360 -899 340 -355 848 -485 1305 -332 221 74 388 183
554 360 154 163 275 411 315 641 20 116 20 327 1 441 -76 434 -386 811 -800
973 -177 70 -424 103 -599 81z m273 -849 c83 -26 137 -60 198 -123 171 -182
164 -446 -19 -629 -216 -218 -589 -158 -723 114 -155 319 50 654 402 656 53 1
102 -6 142 -18z"/>
<path d="M6410 4869 c-335 -39 -600 -219 -743 -505 -45 -90 -74 -174 -99 -294
-20 -90 -21 -138 -25 -882 l-5 -788 381 0 381 0 0 724 c0 794 2 819 59 941
117 250 360 240 468 -20 41 -97 43 -141 43 -907 l0 -738 371 0 370 0 -3 778
c-4 861 -5 863 -72 1064 -107 318 -339 526 -672 603 -135 31 -310 40 -454 24z"/>
<path d="M3929 4790 c-584 -56 -1002 -423 -1120 -983 -29 -134 -31 -372 -5
-492 57 -261 176 -490 348 -671 185 -193 421 -310 698 -344 134 -16 348 -8
447 16 l23 6 0 413 0 413 -77 -39 c-200 -102 -395 -83 -538 52 -166 157 -202
373 -98 589 33 67 131 167 196 199 294 143 639 -28 675 -335 5 -38 5 -238 1
-444 -4 -206 -8 -464 -8 -572 l-1 -198 381 0 380 0 -4 673 c-3 647 -4 676 -25
769 -24 106 -66 227 -108 310 -147 295 -440 532 -763 619 -88 24 -268 32 -402
19z"/>
</g>
</svg>
